# xmcd
#
# Track frame offsets: 
#        150
#        14172
#        25282
#        45127
#        63677
#        79782
#        92780
#        113640
#        129857
#        141632
#        161160
#
# Disc length: 2295 seconds
#
# Revision: 3
# Processed by: cddbd v1.5.2PL0 Copyright (c) Steve Scherf et al.
# Submitted via: ExactAudioCopy v0.95b2
#
DISCID=8208ef0b,8608ef0b,9308f50b
DTITLE=The Paul Butterfield Blues Band - The Paul Butterfield Blues Ba
DTITLE=nd
DYEAR=1965
DGENRE=Blues
TTITLE0=Born In Chicago
TTITLE1=Shake Your Money-Maker
TTITLE2=Blues With A Feeling
TTITLE3=Thank You Mr. Poobah
TTITLE4=I Got My Mojo Working
TTITLE5=Mellow Down Easy
TTITLE6=Screamin'
TTITLE7=Our Love Is Drifting
TTITLE8=Mystery Train
TTITLE9=Last Night
TTITLE10=Look Over Yonders Wall
EXTD=
EXTT0=
EXTT1=
EXTT2=
EXTT3=
EXTT4=
EXTT5=
EXTT6=
EXTT7=
EXTT8=
EXTT9=
EXTT10=
PLAYORDER=
